<svg xmlns="http://www.w3.org/2000/svg" viewBox="0 0 220 220">
  <rect width="220" height="220" rx="24" fill="#f5f0e8" />
  <path d="M62 60c16-18 48-26 74-16 26 10 38 32 32 56-4 14-18 34-26 48-4 8-18 16-24 18-18 6-40 0-54-16C54 134 46 96 62 60z" fill="#c8862a" opacity=".28" />
  <path d="M76 72c12-10 28-12 42-8 14 4 28 16 32 30 4 14-2 26-10 34-6 6-18 14-28 14-10 0-18-8-24-16-4-6-6-16-6-24 0-10 4-20 12-30z" fill="#8b3a2a" />
  <circle cx="95" cy="100" r="10" fill="#f5f0e8" />
  <circle cx="130" cy="108" r="10" fill="#f5f0e8" />
  <path d="M95 102c4 8 14 8 20 0" stroke="#8b3a2a" stroke-width="4" fill="none" />
</svg>